<?xml version="1.0" encoding="utf-8" standalone="no"?>
<!DOCTYPE svg PUBLIC "-//W3C//DTD SVG 1.1//EN"
  "http://www.w3.org/Graphics/SVG/1.1/DTD/svg11.dtd">
<svg xmlns:xlink="http://www.w3.org/1999/xlink" width="734.4pt" height="230.4pt" viewBox="0 0 734.4 230.4" xmlns="http://www.w3.org/2000/svg" version="1.1">
 <metadata>
  <rdf:RDF xmlns:dc="http://purl.org/dc/elements/1.1/" xmlns:cc="http://creativecommons.org/ns#" xmlns:rdf="http://www.w3.org/1999/02/22-rdf-syntax-ns#">
   <cc:Work>
    <dc:type rdf:resource="http://purl.org/dc/dcmitype/StillImage"/>
    <dc:date>2026-07-05T21:49:25.109194</dc:date>
    <dc:format>image/svg+xml</dc:format>
    <dc:creator>
     <cc:Agent>
      <dc:title>Matplotlib v3.7.3, https://matplotlib.org/</dc:title>
     </cc:Agent>
    </dc:creator>
   </cc:Work>
  </rdf:RDF>
 </metadata>
 <defs>
  <style type="text/css">*{stroke-linejoin: round; stroke-linecap: butt}</style>
 </defs>
 <g id="figure_1">
  <g id="patch_1">
   <path d="M 0 230.4
L 734.4 230.4
L 734.4 0
L 0 0
z
" style="fill: #ffffff"/>
  </g>
  <g id="axes_1">
   <g id="patch_2">
    <path d="M 49.128365 197.04351
L 242.188822 197.04351
L 242.188822 32.786614
L 49.128365 32.786614
z
" style="fill: #ffffff"/>
   </g>
   <g id="matplotlib.axis_1">
    <g id="xtick_1">
     <g id="line2d_1">
      <path d="M 53.545816 197.04351
L 53.545816 32.786614
" clip-path="url(#p699003d8bc)" style="fill: none; stroke: #dddddd; stroke-width: 0.8; stroke-linecap: square"/>
     </g>
     <g id="line2d_2">
      <defs>
       <path id="m1eb6714736" d="M 0 0
L 0 3.5
" style="stroke: #000000; stroke-width: 0.8"/>
      </defs>
      <g>
       <use xlink:href="#m1eb6714736" x="53.545816" y="197.04351" style="stroke: #000000; stroke-width: 0.8"/>
      </g>
     </g>
     <g id="text_1">
      <!-- 0 -->
      <g transform="translate(50.364566 211.641948) scale(0.1 -0.1)">
       <defs>
        <path id="DejaVuSans-30" d="M 2034 4250
Q 1547 4250 1301 3770
Q 1056 3291 1056 2328
Q 1056 1369 1301 889
Q 1547 409 2034 409
Q 2525 409 2770 889
Q 3016 1369 3016 2328
Q 3016 3291 2770 3770
Q 2525 4250 2034 4250
z
M 2034 4750
Q 2819 4750 3233 4129
Q 3647 3509 3647 2328
Q 3647 1150 3233 529
Q 2819 -91 2034 -91
Q 1250 -91 836 529
Q 422 1150 422 2328
Q 422 3509 836 4129
Q 1250 4750 2034 4750
z
" transform="scale(0.015625)"/>
       </defs>
       <use xlink:href="#DejaVuSans-30"/>
      </g>
     </g>
    </g>
    <g id="xtick_2">
     <g id="line2d_3">
      <path d="M 93.164215 197.04351
L 93.164215 32.786614
" clip-path="url(#p699003d8bc)" style="fill: none; stroke: #dddddd; stroke-width: 0.8; stroke-linecap: square"/>
     </g>
     <g id="line2d_4">
      <g>
       <use xlink:href="#m1eb6714736" x="93.164215" y="197.04351" style="stroke: #000000; stroke-width: 0.8"/>
      </g>
     </g>
     <g id="text_2">
      <!-- 100 -->
      <g transform="translate(83.620465 211.641948) scale(0.1 -0.1)">
       <defs>
        <path id="DejaVuSans-31" d="M 794 531
L 1825 531
L 1825 4091
L 703 3866
L 703 4441
L 1819 4666
L 2450 4666
L 2450 531
L 3481 531
L 3481 0
L 794 0
L 794 531
z
" transform="scale(0.015625)"/>
       </defs>
       <use xlink:href="#DejaVuSans-31"/>
       <use xlink:href="#DejaVuSans-30" x="63.623047"/>
       <use xlink:href="#DejaVuSans-30" x="127.246094"/>
      </g>
     </g>
    </g>
    <g id="xtick_3">
     <g id="line2d_5">
      <path d="M 132.782614 197.04351
L 132.782614 32.786614
" clip-path="url(#p699003d8bc)" style="fill: none; stroke: #dddddd; stroke-width: 0.8; stroke-linecap: square"/>
     </g>
     <g id="line2d_6">
      <g>
       <use xlink:href="#m1eb6714736" x="132.782614" y="197.04351" style="stroke: #000000; stroke-width: 0.8"/>
      </g>
     </g>
     <g id="text_3">
      <!-- 200 -->
      <g transform="translate(123.238864 211.641948) scale(0.1 -0.1)">
       <defs>
        <path id="DejaVuSans-32" d="M 1228 531
L 3431 531
L 3431 0
L 469 0
L 469 531
Q 828 903 1448 1529
Q 2069 2156 2228 2338
Q 2531 2678 2651 2914
Q 2772 3150 2772 3378
Q 2772 3750 2511 3984
Q 2250 4219 1831 4219
Q 1534 4219 1204 4116
Q 875 4013 500 3803
L 500 4441
Q 881 4594 1212 4672
Q 1544 4750 1819 4750
Q 2544 4750 2975 4387
Q 3406 4025 3406 3419
Q 3406 3131 3298 2873
Q 3191 2616 2906 2266
Q 2828 2175 2409 1742
Q 1991 1309 1228 531
z
" transform="scale(0.015625)"/>
       </defs>
       <use xlink:href="#DejaVuSans-32"/>
       <use xlink:href="#DejaVuSans-30" x="63.623047"/>
       <use xlink:href="#DejaVuSans-30" x="127.246094"/>
      </g>
     </g>
    </g>
    <g id="xtick_4">
     <g id="line2d_7">
      <path d="M 172.401013 197.04351
L 172.401013 32.786614
" clip-path="url(#p699003d8bc)" style="fill: none; stroke: #dddddd; stroke-width: 0.8; stroke-linecap: square"/>
     </g>
     <g id="line2d_8">
      <g>
       <use xlink:href="#m1eb6714736" x="172.401013" y="197.04351" style="stroke: #000000; stroke-width: 0.8"/>
      </g>
     </g>
     <g id="text_4">
      <!-- 300 -->
      <g transform="translate(162.857263 211.641948) scale(0.1 -0.1)">
       <defs>
        <path id="DejaVuSans-33" d="M 2597 2516
Q 3050 2419 3304 2112
Q 3559 1806 3559 1356
Q 3559 666 3084 287
Q 2609 -91 1734 -91
Q 1441 -91 1130 -33
Q 819 25 488 141
L 488 750
Q 750 597 1062 519
Q 1375 441 1716 441
Q 2309 441 2620 675
Q 2931 909 2931 1356
Q 2931 1769 2642 2001
Q 2353 2234 1838 2234
L 1294 2234
L 1294 2753
L 1863 2753
Q 2328 2753 2575 2939
Q 2822 3125 2822 3475
Q 2822 3834 2567 4026
Q 2313 4219 1838 4219
Q 1578 4219 1281 4162
Q 984 4106 628 3988
L 628 4550
Q 988 4650 1302 4700
Q 1616 4750 1894 4750
Q 2613 4750 3031 4423
Q 3450 4097 3450 3541
Q 3450 3153 3228 2886
Q 3006 2619 2597 2516
z
" transform="scale(0.015625)"/>
       </defs>
       <use xlink:href="#DejaVuSans-33"/>
       <use xlink:href="#DejaVuSans-30" x="63.623047"/>
       <use xlink:href="#DejaVuSans-30" x="127.246094"/>
      </g>
     </g>
    </g>
    <g id="xtick_5">
     <g id="line2d_9">
      <path d="M 212.019412 197.04351
L 212.019412 32.786614
" clip-path="url(#p699003d8bc)" style="fill: none; stroke: #dddddd; stroke-width: 0.8; stroke-linecap: square"/>
     </g>
     <g id="line2d_10">
      <g>
       <use xlink:href="#m1eb6714736" x="212.019412" y="197.04351" style="stroke: #000000; stroke-width: 0.8"/>
      </g>
     </g>
     <g id="text_5">
      <!-- 400 -->
      <g transform="translate(202.475662 211.641948) scale(0.1 -0.1)">
       <defs>
        <path id="DejaVuSans-34" d="M 2419 4116
L 825 1625
L 2419 1625
L 2419 4116
z
M 2253 4666
L 3047 4666
L 3047 1625
L 3713 1625
L 3713 1100
L 3047 1100
L 3047 0
L 2419 0
L 2419 1100
L 313 1100
L 313 1709
L 2253 4666
z
" transform="scale(0.015625)"/>
       </defs>
       <use xlink:href="#DejaVuSans-34"/>
       <use xlink:href="#DejaVuSans-30" x="63.623047"/>
       <use xlink:href="#DejaVuSans-30" x="127.246094"/>
      </g>
     </g>
    </g>
    <g id="text_6">
     <!-- Residues -->
     <g transform="translate(123.314844 225.320073) scale(0.1 -0.1)">
      <defs>
       <path id="DejaVuSans-52" d="M 2841 2188
Q 3044 2119 3236 1894
Q 3428 1669 3622 1275
L 4263 0
L 3584 0
L 2988 1197
Q 2756 1666 2539 1819
Q 2322 1972 1947 1972
L 1259 1972
L 1259 0
L 628 0
L 628 4666
L 2053 4666
Q 2853 4666 3247 4331
Q 3641 3997 3641 3322
Q 3641 2881 3436 2590
Q 3231 2300 2841 2188
z
M 1259 4147
L 1259 2491
L 2053 2491
Q 2509 2491 2742 2702
Q 2975 2913 2975 3322
Q 2975 3731 2742 3939
Q 2509 4147 2053 4147
L 1259 4147
z
" transform="scale(0.015625)"/>
       <path id="DejaVuSans-65" d="M 3597 1894
L 3597 1613
L 953 1613
Q 991 1019 1311 708
Q 1631 397 2203 397
Q 2534 397 2845 478
Q 3156 559 3463 722
L 3463 178
Q 3153 47 2828 -22
Q 2503 -91 2169 -91
Q 1331 -91 842 396
Q 353 884 353 1716
Q 353 2575 817 3079
Q 1281 3584 2069 3584
Q 2775 3584 3186 3129
Q 3597 2675 3597 1894
z
M 3022 2063
Q 3016 2534 2758 2815
Q 2500 3097 2075 3097
Q 1594 3097 1305 2825
Q 1016 2553 972 2059
L 3022 2063
z
" transform="scale(0.015625)"/>
       <path id="DejaVuSans-73" d="M 2834 3397
L 2834 2853
Q 2591 2978 2328 3040
Q 2066 3103 1784 3103
Q 1356 3103 1142 2972
Q 928 2841 928 2578
Q 928 2378 1081 2264
Q 1234 2150 1697 2047
L 1894 2003
Q 2506 1872 2764 1633
Q 3022 1394 3022 966
Q 3022 478 2636 193
Q 2250 -91 1575 -91
Q 1294 -91 989 -36
Q 684 19 347 128
L 347 722
Q 666 556 975 473
Q 1284 391 1588 391
Q 1994 391 2212 530
Q 2431 669 2431 922
Q 2431 1156 2273 1281
Q 2116 1406 1581 1522
L 1381 1569
Q 847 1681 609 1914
Q 372 2147 372 2553
Q 372 3047 722 3315
Q 1072 3584 1716 3584
Q 2034 3584 2315 3537
Q 2597 3491 2834 3397
z
" transform="scale(0.015625)"/>
       <path id="DejaVuSans-69" d="M 603 3500
L 1178 3500
L 1178 0
L 603 0
L 603 3500
z
M 603 4863
L 1178 4863
L 1178 4134
L 603 4134
L 603 4863
z
" transform="scale(0.015625)"/>
       <path id="DejaVuSans-64" d="M 2906 2969
L 2906 4863
L 3481 4863
L 3481 0
L 2906 0
L 2906 525
Q 2725 213 2448 61
Q 2172 -91 1784 -91
Q 1150 -91 751 415
Q 353 922 353 1747
Q 353 2572 751 3078
Q 1150 3584 1784 3584
Q 2172 3584 2448 3432
Q 2725 3281 2906 2969
z
M 947 1747
Q 947 1113 1208 752
Q 1469 391 1925 391
Q 2381 391 2643 752
Q 2906 1113 2906 1747
Q 2906 2381 2643 2742
Q 2381 3103 1925 3103
Q 1469 3103 1208 2742
Q 947 2381 947 1747
z
" transform="scale(0.015625)"/>
       <path id="DejaVuSans-75" d="M 544 1381
L 544 3500
L 1119 3500
L 1119 1403
Q 1119 906 1312 657
Q 1506 409 1894 409
Q 2359 409 2629 706
Q 2900 1003 2900 1516
L 2900 3500
L 3475 3500
L 3475 0
L 2900 0
L 2900 538
Q 2691 219 2414 64
Q 2138 -91 1772 -91
Q 1169 -91 856 284
Q 544 659 544 1381
z
M 1991 3584
L 1991 3584
z
" transform="scale(0.015625)"/>
      </defs>
      <use xlink:href="#DejaVuSans-52"/>
      <use xlink:href="#DejaVuSans-65" x="64.982422"/>
      <use xlink:href="#DejaVuSans-73" x="126.505859"/>
      <use xlink:href="#DejaVuSans-69" x="178.605469"/>
      <use xlink:href="#DejaVuSans-64" x="206.388672"/>
      <use xlink:href="#DejaVuSans-75" x="269.865234"/>
      <use xlink:href="#DejaVuSans-65" x="333.244141"/>
      <use xlink:href="#DejaVuSans-73" x="394.767578"/>
     </g>
    </g>
   </g>
   <g id="matplotlib.axis_2">
    <g id="ytick_1">
     <g id="line2d_11">
      <path d="M 49.128365 185.095071
L 242.188822 185.095071
" clip-path="url(#p699003d8bc)" style="fill: none; stroke: #dddddd; stroke-width: 0.8; stroke-linecap: square"/>
     </g>
     <g id="line2d_12">
      <defs>
       <path id="m2aa8e4b007" d="M 0 0
L -3.5 0
" style="stroke: #000000; stroke-width: 0.8"/>
      </defs>
      <g>
       <use xlink:href="#m2aa8e4b007" x="49.128365" y="185.095071" style="stroke: #000000; stroke-width: 0.8"/>
      </g>
     </g>
     <g id="text_7">
      <!-- 0 -->
      <g transform="translate(35.765865 188.89429) scale(0.1 -0.1)">
       <use xlink:href="#DejaVuSans-30"/>
      </g>
     </g>
    </g>
    <g id="ytick_2">
     <g id="line2d_13">
      <path d="M 49.128365 158.853555
L 242.188822 158.853555
" clip-path="url(#p699003d8bc)" style="fill: none; stroke: #dddddd; stroke-width: 0.8; stroke-linecap: square"/>
     </g>
     <g id="line2d_14">
      <g>
       <use xlink:href="#m2aa8e4b007" x="49.128365" y="158.853555" style="stroke: #000000; stroke-width: 0.8"/>
      </g>
     </g>
     <g id="text_8">
      <!-- 200 -->
      <g transform="translate(23.040865 162.652774) scale(0.1 -0.1)">
       <use xlink:href="#DejaVuSans-32"/>
       <use xlink:href="#DejaVuSans-30" x="63.623047"/>
       <use xlink:href="#DejaVuSans-30" x="127.246094"/>
      </g>
     </g>
    </g>
    <g id="ytick_3">
     <g id="line2d_15">
      <path d="M 49.128365 132.612039
L 242.188822 132.612039
" clip-path="url(#p699003d8bc)" style="fill: none; stroke: #dddddd; stroke-width: 0.8; stroke-linecap: square"/>
     </g>
     <g id="line2d_16">
      <g>
       <use xlink:href="#m2aa8e4b007" x="49.128365" y="132.612039" style="stroke: #000000; stroke-width: 0.8"/>
      </g>
     </g>
     <g id="text_9">
      <!-- 400 -->
      <g transform="translate(23.040865 136.411258) scale(0.1 -0.1)">
       <use xlink:href="#DejaVuSans-34"/>
       <use xlink:href="#DejaVuSans-30" x="63.623047"/>
       <use xlink:href="#DejaVuSans-30" x="127.246094"/>
      </g>
     </g>
    </g>
    <g id="ytick_4">
     <g id="line2d_17">
      <path d="M 49.128365 106.370523
L 242.188822 106.370523
" clip-path="url(#p699003d8bc)" style="fill: none; stroke: #dddddd; stroke-width: 0.8; stroke-linecap: square"/>
     </g>
     <g id="line2d_18">
      <g>
       <use xlink:href="#m2aa8e4b007" x="49.128365" y="106.370523" style="stroke: #000000; stroke-width: 0.8"/>
      </g>
     </g>
     <g id="text_10">
      <!-- 600 -->
      <g transform="translate(23.040865 110.169741) scale(0.1 -0.1)">
       <defs>
        <path id="DejaVuSans-36" d="M 2113 2584
Q 1688 2584 1439 2293
Q 1191 2003 1191 1497
Q 1191 994 1439 701
Q 1688 409 2113 409
Q 2538 409 2786 701
Q 3034 994 3034 1497
Q 3034 2003 2786 2293
Q 2538 2584 2113 2584
z
M 3366 4563
L 3366 3988
Q 3128 4100 2886 4159
Q 2644 4219 2406 4219
Q 1781 4219 1451 3797
Q 1122 3375 1075 2522
Q 1259 2794 1537 2939
Q 1816 3084 2150 3084
Q 2853 3084 3261 2657
Q 3669 2231 3669 1497
Q 3669 778 3244 343
Q 2819 -91 2113 -91
Q 1303 -91 875 529
Q 447 1150 447 2328
Q 447 3434 972 4092
Q 1497 4750 2381 4750
Q 2619 4750 2861 4703
Q 3103 4656 3366 4563
z
" transform="scale(0.015625)"/>
       </defs>
       <use xlink:href="#DejaVuSans-36"/>
       <use xlink:href="#DejaVuSans-30" x="63.623047"/>
       <use xlink:href="#DejaVuSans-30" x="127.246094"/>
      </g>
     </g>
    </g>
    <g id="ytick_5">
     <g id="line2d_19">
      <path d="M 49.128365 80.129007
L 242.188822 80.129007
" clip-path="url(#p699003d8bc)" style="fill: none; stroke: #dddddd; stroke-width: 0.8; stroke-linecap: square"/>
     </g>
     <g id="line2d_20">
      <g>
       <use xlink:href="#m2aa8e4b007" x="49.128365" y="80.129007" style="stroke: #000000; stroke-width: 0.8"/>
      </g>
     </g>
     <g id="text_11">
      <!-- 800 -->
      <g transform="translate(23.040865 83.928225) scale(0.1 -0.1)">
       <defs>
        <path id="DejaVuSans-38" d="M 2034 2216
Q 1584 2216 1326 1975
Q 1069 1734 1069 1313
Q 1069 891 1326 650
Q 1584 409 2034 409
Q 2484 409 2743 651
Q 3003 894 3003 1313
Q 3003 1734 2745 1975
Q 2488 2216 2034 2216
z
M 1403 2484
Q 997 2584 770 2862
Q 544 3141 544 3541
Q 544 4100 942 4425
Q 1341 4750 2034 4750
Q 2731 4750 3128 4425
Q 3525 4100 3525 3541
Q 3525 3141 3298 2862
Q 3072 2584 2669 2484
Q 3125 2378 3379 2068
Q 3634 1759 3634 1313
Q 3634 634 3220 271
Q 2806 -91 2034 -91
Q 1263 -91 848 271
Q 434 634 434 1313
Q 434 1759 690 2068
Q 947 2378 1403 2484
z
M 1172 3481
Q 1172 3119 1398 2916
Q 1625 2713 2034 2713
Q 2441 2713 2670 2916
Q 2900 3119 2900 3481
Q 2900 3844 2670 4047
Q 2441 4250 2034 4250
Q 1625 4250 1398 4047
Q 1172 3844 1172 3481
z
" transform="scale(0.015625)"/>
       </defs>
       <use xlink:href="#DejaVuSans-38"/>
       <use xlink:href="#DejaVuSans-30" x="63.623047"/>
       <use xlink:href="#DejaVuSans-30" x="127.246094"/>
      </g>
     </g>
    </g>
    <g id="ytick_6">
     <g id="line2d_21">
      <path d="M 49.128365 53.88749
L 242.188822 53.88749
" clip-path="url(#p699003d8bc)" style="fill: none; stroke: #dddddd; stroke-width: 0.8; stroke-linecap: square"/>
     </g>
     <g id="line2d_22">
      <g>
       <use xlink:href="#m2aa8e4b007" x="49.128365" y="53.88749" style="stroke: #000000; stroke-width: 0.8"/>
      </g>
     </g>
     <g id="text_12">
      <!-- 1000 -->
      <g transform="translate(16.678365 57.686709) scale(0.1 -0.1)">
       <use xlink:href="#DejaVuSans-31"/>
       <use xlink:href="#DejaVuSans-30" x="63.623047"/>
       <use xlink:href="#DejaVuSans-30" x="127.246094"/>
       <use xlink:href="#DejaVuSans-30" x="190.869141"/>
      </g>
     </g>
    </g>
    <g id="text_13">
     <!-- Predicted clashes -->
     <g transform="translate(10.598678 158.631468) rotate(-90) scale(0.1 -0.1)">
      <defs>
       <path id="DejaVuSans-50" d="M 1259 4147
L 1259 2394
L 2053 2394
Q 2494 2394 2734 2622
Q 2975 2850 2975 3272
Q 2975 3691 2734 3919
Q 2494 4147 2053 4147
L 1259 4147
z
M 628 4666
L 2053 4666
Q 2838 4666 3239 4311
Q 3641 3956 3641 3272
Q 3641 2581 3239 2228
Q 2838 1875 2053 1875
L 1259 1875
L 1259 0
L 628 0
L 628 4666
z
" transform="scale(0.015625)"/>
       <path id="DejaVuSans-72" d="M 2631 2963
Q 2534 3019 2420 3045
Q 2306 3072 2169 3072
Q 1681 3072 1420 2755
Q 1159 2438 1159 1844
L 1159 0
L 581 0
L 581 3500
L 1159 3500
L 1159 2956
Q 1341 3275 1631 3429
Q 1922 3584 2338 3584
Q 2397 3584 2469 3576
Q 2541 3569 2628 3553
L 2631 2963
z
" transform="scale(0.015625)"/>
       <path id="DejaVuSans-63" d="M 3122 3366
L 3122 2828
Q 2878 2963 2633 3030
Q 2388 3097 2138 3097
Q 1578 3097 1268 2742
Q 959 2388 959 1747
Q 959 1106 1268 751
Q 1578 397 2138 397
Q 2388 397 2633 464
Q 2878 531 3122 666
L 3122 134
Q 2881 22 2623 -34
Q 2366 -91 2075 -91
Q 1284 -91 818 406
Q 353 903 353 1747
Q 353 2603 823 3093
Q 1294 3584 2113 3584
Q 2378 3584 2631 3529
Q 2884 3475 3122 3366
z
" transform="scale(0.015625)"/>
       <path id="DejaVuSans-74" d="M 1172 4494
L 1172 3500
L 2356 3500
L 2356 3053
L 1172 3053
L 1172 1153
Q 1172 725 1289 603
Q 1406 481 1766 481
L 2356 481
L 2356 0
L 1766 0
Q 1100 0 847 248
Q 594 497 594 1153
L 594 3053
L 172 3053
L 172 3500
L 594 3500
L 594 4494
L 1172 4494
z
" transform="scale(0.015625)"/>
       <path id="DejaVuSans-20" transform="scale(0.015625)"/>
       <path id="DejaVuSans-6c" d="M 603 4863
L 1178 4863
L 1178 0
L 603 0
L 603 4863
z
" transform="scale(0.015625)"/>
       <path id="DejaVuSans-61" d="M 2194 1759
Q 1497 1759 1228 1600
Q 959 1441 959 1056
Q 959 750 1161 570
Q 1363 391 1709 391
Q 2188 391 2477 730
Q 2766 1069 2766 1631
L 2766 1759
L 2194 1759
z
M 3341 1997
L 3341 0
L 2766 0
L 2766 531
Q 2569 213 2275 61
Q 1981 -91 1556 -91
Q 1019 -91 701 211
Q 384 513 384 1019
Q 384 1609 779 1909
Q 1175 2209 1959 2209
L 2766 2209
L 2766 2266
Q 2766 2663 2505 2880
Q 2244 3097 1772 3097
Q 1472 3097 1187 3025
Q 903 2953 641 2809
L 641 3341
Q 956 3463 1253 3523
Q 1550 3584 1831 3584
Q 2591 3584 2966 3190
Q 3341 2797 3341 1997
z
" transform="scale(0.015625)"/>
       <path id="DejaVuSans-68" d="M 3513 2113
L 3513 0
L 2938 0
L 2938 2094
Q 2938 2591 2744 2837
Q 2550 3084 2163 3084
Q 1697 3084 1428 2787
Q 1159 2491 1159 1978
L 1159 0
L 581 0
L 581 4863
L 1159 4863
L 1159 2956
Q 1366 3272 1645 3428
Q 1925 3584 2291 3584
Q 2894 3584 3203 3211
Q 3513 2838 3513 2113
z
" transform="scale(0.015625)"/>
      </defs>
      <use xlink:href="#DejaVuSans-50"/>
      <use xlink:href="#DejaVuSans-72" x="58.552734"/>
      <use xlink:href="#DejaVuSans-65" x="97.416016"/>
      <use xlink:href="#DejaVuSans-64" x="158.939453"/>
      <use xlink:href="#DejaVuSans-69" x="222.416016"/>
      <use xlink:href="#DejaVuSans-63" x="250.199219"/>
      <use xlink:href="#DejaVuSans-74" x="305.179688"/>
      <use xlink:href="#DejaVuSans-65" x="344.388672"/>
      <use xlink:href="#DejaVuSans-64" x="405.912109"/>
      <use xlink:href="#DejaVuSans-20" x="469.388672"/>
      <use xlink:href="#DejaVuSans-63" x="501.175781"/>
      <use xlink:href="#DejaVuSans-6c" x="556.15625"/>
      <use xlink:href="#DejaVuSans-61" x="583.939453"/>
      <use xlink:href="#DejaVuSans-73" x="645.21875"/>
      <use xlink:href="#DejaVuSans-68" x="697.318359"/>
      <use xlink:href="#DejaVuSans-65" x="760.697266"/>
      <use xlink:href="#DejaVuSans-73" x="822.220703"/>
     </g>
    </g>
   </g>
   <g id="line2d_23">
    <path d="M 57.90384 189.577287
L 59.676664 188.104861
L 61.449487 186.632434
L 63.22231 185.160007
L 64.995134 183.68758
L 66.767957 182.215153
L 68.54078 180.742726
L 70.313603 179.270299
L 72.086427 177.797872
L 73.85925 176.325446
L 75.632073 174.853019
L 77.404897 173.380592
L 79.17772 171.908165
L 80.950543 170.435738
L 82.723367 168.963311
L 84.49619 167.490884
L 86.269013 166.018458
L 88.041836 164.546031
L 89.81466 163.073604
L 91.587483 161.601177
L 93.360306 160.12875
L 95.13313 158.656323
L 96.905953 157.183896
L 98.678776 155.711469
L 100.4516 154.239043
L 102.224423 152.766616
L 103.997246 151.294189
L 105.770069 149.821762
L 107.542893 148.349335
L 109.315716 146.876908
L 111.088539 145.404481
L 112.861363 143.932054
L 114.634186 142.459628
L 116.407009 140.987201
L 118.179833 139.514774
L 119.952656 138.042347
L 121.725479 136.56992
L 123.498302 135.097493
L 125.271126 133.625066
L 127.043949 132.15264
L 128.816772 130.680213
L 130.589596 129.207786
L 132.362419 127.735359
L 134.135242 126.262932
L 135.908066 124.790505
L 137.680889 123.318078
L 139.453712 121.845651
L 141.226535 120.373225
L 142.999359 118.900798
L 144.772182 117.428371
L 146.545005 115.955944
L 148.317829 114.483517
L 150.090652 113.01109
L 151.863475 111.538663
L 153.636299 110.066236
L 155.409122 108.59381
L 157.181945 107.121383
L 158.954769 105.648956
L 160.727592 104.176529
L 162.500415 102.704102
L 164.273238 101.231675
L 166.046062 99.759248
L 167.818885 98.286822
L 169.591708 96.814395
L 171.364532 95.341968
L 173.137355 93.869541
L 174.910178 92.397114
L 176.683002 90.924687
L 178.455825 89.45226
L 180.228648 87.979833
L 182.001471 86.507407
L 183.774295 85.03498
L 185.547118 83.562553
L 187.319941 82.090126
L 189.092765 80.617699
L 190.865588 79.145272
L 192.638411 77.672845
L 194.411235 76.200418
L 196.184058 74.727992
L 197.956881 73.255565
L 199.729704 71.783138
L 201.502528 70.310711
L 203.275351 68.838284
L 205.048174 67.365857
L 206.820998 65.89343
L 208.593821 64.421004
L 210.366644 62.948577
L 212.139468 61.47615
L 213.912291 60.003723
L 215.685114 58.531296
L 217.457937 57.058869
L 219.230761 55.586442
L 221.003584 54.114015
L 222.776407 52.641589
L 224.549231 51.169162
L 226.322054 49.696735
L 228.094877 48.224308
L 229.867701 46.751881
L 231.640524 45.279454
L 233.413347 43.807027
" clip-path="url(#p699003d8bc)" style="fill: none; stroke: #333333; stroke-width: 1.4; stroke-linecap: square"/>
   </g>
   <g id="patch_3">
    <path d="M 49.128365 197.04351
L 49.128365 32.786614
" style="fill: none; stroke: #000000; stroke-width: 0.8; stroke-linejoin: miter; stroke-linecap: square"/>
   </g>
   <g id="patch_4">
    <path d="M 49.128365 197.04351
L 242.188823 197.04351
" style="fill: none; stroke: #000000; stroke-width: 0.8; stroke-linejoin: miter; stroke-linecap: square"/>
   </g>
   <g id="PathCollection_1">
    <defs>
     <path id="m5747a745a2" d="M 0 3.082207
C 0.817411 3.082207 1.601453 2.757446 2.179449 2.179449
C 2.757446 1.601453 3.082207 0.817411 3.082207 0
C 3.082207 -0.817411 2.757446 -1.601453 2.179449 -2.179449
C 1.601453 -2.757446 0.817411 -3.082207 0 -3.082207
C -0.817411 -3.082207 -1.601453 -2.757446 -2.179449 -2.179449
C -2.757446 -1.601453 -3.082207 -0.817411 -3.082207 0
C -3.082207 0.817411 -2.757446 1.601453 -2.179449 2.179449
C -1.601453 2.757446 -0.817411 3.082207 0 3.082207
z
" style="stroke: #ffffff; stroke-width: 0.7"/>
    </defs>
    <g clip-path="url(#p699003d8bc)">
     <use xlink:href="#m5747a745a2" x="105.842103" y="164.558898" style="fill: #3b6fb6; stroke: #ffffff; stroke-width: 0.7"/>
     <use xlink:href="#m5747a745a2" x="110.200127" y="161.460212" style="fill: #3b6fb6; stroke: #ffffff; stroke-width: 0.7"/>
     <use xlink:href="#m5747a745a2" x="96.333687" y="158.077243" style="fill: #3b6fb6; stroke: #ffffff; stroke-width: 0.7"/>
     <use xlink:href="#m5747a745a2" x="57.90384" y="182.226323" style="fill: #3b6fb6; stroke: #ffffff; stroke-width: 0.7"/>
     <use xlink:href="#m5747a745a2" x="109.011575" y="143.37106" style="fill: #3b6fb6; stroke: #ffffff; stroke-width: 0.7"/>
     <use xlink:href="#m5747a745a2" x="109.803943" y="137.860342" style="fill: #3b6fb6; stroke: #ffffff; stroke-width: 0.7"/>
     <use xlink:href="#m5747a745a2" x="82.863432" y="167.732372" style="fill: #3b6fb6; stroke: #ffffff; stroke-width: 0.7"/>
     <use xlink:href="#m5747a745a2" x="62.261864" y="181.171964" style="fill: #3b6fb6; stroke: #ffffff; stroke-width: 0.7"/>
     <use xlink:href="#m5747a745a2" x="79.297776" y="176.144527" style="fill: #3b6fb6; stroke: #ffffff; stroke-width: 0.7"/>
     <use xlink:href="#m5747a745a2" x="233.413347" y="40.252836" style="fill: #3b6fb6; stroke: #ffffff; stroke-width: 0.7"/>
     <use xlink:href="#m5747a745a2" x="113.765783" y="146.919788" style="fill: #3b6fb6; stroke: #ffffff; stroke-width: 0.7"/>
     <use xlink:href="#m5747a745a2" x="81.67488" y="169.969461" style="fill: #3b6fb6; stroke: #ffffff; stroke-width: 0.7"/>
     <use xlink:href="#m5747a745a2" x="62.261864" y="180.851818" style="fill: #3b6fb6; stroke: #ffffff; stroke-width: 0.7"/>
     <use xlink:href="#m5747a745a2" x="105.049735" y="158.951961" style="fill: #3b6fb6; stroke: #ffffff; stroke-width: 0.7"/>
     <use xlink:href="#m5747a745a2" x="62.261864" y="181.122105" style="fill: #3b6fb6; stroke: #ffffff; stroke-width: 0.7"/>
     <use xlink:href="#m5747a745a2" x="105.445919" y="153.126781" style="fill: #3b6fb6; stroke: #ffffff; stroke-width: 0.7"/>
     <use xlink:href="#m5747a745a2" x="69.393176" y="173.281578" style="fill: #3b6fb6; stroke: #ffffff; stroke-width: 0.7"/>
     <use xlink:href="#m5747a745a2" x="73.7512" y="174.253389" style="fill: #3b6fb6; stroke: #ffffff; stroke-width: 0.7"/>
     <use xlink:href="#m5747a745a2" x="110.200127" y="155.894824" style="fill: #3b6fb6; stroke: #ffffff; stroke-width: 0.7"/>
     <use xlink:href="#m5747a745a2" x="159.723125" y="98.975663" style="fill: #3b6fb6; stroke: #ffffff; stroke-width: 0.7"/>
     <use xlink:href="#m5747a745a2" x="159.723125" y="99.879916" style="fill: #3b6fb6; stroke: #ffffff; stroke-width: 0.7"/>
     <use xlink:href="#m5747a745a2" x="159.723125" y="101.656526" style="fill: #3b6fb6; stroke: #ffffff; stroke-width: 0.7"/>
     <use xlink:href="#m5747a745a2" x="80.882512" y="172.980675" style="fill: #3b6fb6; stroke: #ffffff; stroke-width: 0.7"/>
    </g>
   </g>
   <g id="text_14">
    <!-- rho=0.95 -->
    <g transform="translate(56.850783 48.720777) scale(0.08 -0.08)">
     <defs>
      <path id="DejaVuSans-6f" d="M 1959 3097
Q 1497 3097 1228 2736
Q 959 2375 959 1747
Q 959 1119 1226 758
Q 1494 397 1959 397
Q 2419 397 2687 759
Q 2956 1122 2956 1747
Q 2956 2369 2687 2733
Q 2419 3097 1959 3097
z
M 1959 3584
Q 2709 3584 3137 3096
Q 3566 2609 3566 1747
Q 3566 888 3137 398
Q 2709 -91 1959 -91
Q 1206 -91 779 398
Q 353 888 353 1747
Q 353 2609 779 3096
Q 1206 3584 1959 3584
z
" transform="scale(0.015625)"/>
      <path id="DejaVuSans-3d" d="M 678 2906
L 4684 2906
L 4684 2381
L 678 2381
L 678 2906
z
M 678 1631
L 4684 1631
L 4684 1100
L 678 1100
L 678 1631
z
" transform="scale(0.015625)"/>
      <path id="DejaVuSans-2e" d="M 684 794
L 1344 794
L 1344 0
L 684 0
L 684 794
z
" transform="scale(0.015625)"/>
      <path id="DejaVuSans-39" d="M 703 97
L 703 672
Q 941 559 1184 500
Q 1428 441 1663 441
Q 2288 441 2617 861
Q 2947 1281 2994 2138
Q 2813 1869 2534 1725
Q 2256 1581 1919 1581
Q 1219 1581 811 2004
Q 403 2428 403 3163
Q 403 3881 828 4315
Q 1253 4750 1959 4750
Q 2769 4750 3195 4129
Q 3622 3509 3622 2328
Q 3622 1225 3098 567
Q 2575 -91 1691 -91
Q 1453 -91 1209 -44
Q 966 3 703 97
z
M 1959 2075
Q 2384 2075 2632 2365
Q 2881 2656 2881 3163
Q 2881 3666 2632 3958
Q 2384 4250 1959 4250
Q 1534 4250 1286 3958
Q 1038 3666 1038 3163
Q 1038 2656 1286 2365
Q 1534 2075 1959 2075
z
" transform="scale(0.015625)"/>
      <path id="DejaVuSans-35" d="M 691 4666
L 3169 4666
L 3169 4134
L 1269 4134
L 1269 2991
Q 1406 3038 1543 3061
Q 1681 3084 1819 3084
Q 2600 3084 3056 2656
Q 3513 2228 3513 1497
Q 3513 744 3044 326
Q 2575 -91 1722 -91
Q 1428 -91 1123 -41
Q 819 9 494 109
L 494 744
Q 775 591 1075 516
Q 1375 441 1709 441
Q 2250 441 2565 725
Q 2881 1009 2881 1497
Q 2881 1984 2565 2268
Q 2250 2553 1709 2553
Q 1456 2553 1204 2497
Q 953 2441 691 2322
L 691 4666
z
" transform="scale(0.015625)"/>
     </defs>
     <use xlink:href="#DejaVuSans-72"/>
     <use xlink:href="#DejaVuSans-68" x="39.363281"/>
     <use xlink:href="#DejaVuSans-6f" x="102.742188"/>
     <use xlink:href="#DejaVuSans-3d" x="163.923828"/>
     <use xlink:href="#DejaVuSans-30" x="247.712891"/>
     <use xlink:href="#DejaVuSans-2e" x="311.335938"/>
     <use xlink:href="#DejaVuSans-39" x="343.123047"/>
     <use xlink:href="#DejaVuSans-35" x="406.746094"/>
    </g>
    <!-- p=3.38e-12 -->
    <g transform="translate(56.850783 57.679027) scale(0.08 -0.08)">
     <defs>
      <path id="DejaVuSans-70" d="M 1159 525
L 1159 -1331
L 581 -1331
L 581 3500
L 1159 3500
L 1159 2969
Q 1341 3281 1617 3432
Q 1894 3584 2278 3584
Q 2916 3584 3314 3078
Q 3713 2572 3713 1747
Q 3713 922 3314 415
Q 2916 -91 2278 -91
Q 1894 -91 1617 61
Q 1341 213 1159 525
z
M 3116 1747
Q 3116 2381 2855 2742
Q 2594 3103 2138 3103
Q 1681 3103 1420 2742
Q 1159 2381 1159 1747
Q 1159 1113 1420 752
Q 1681 391 2138 391
Q 2594 391 2855 752
Q 3116 1113 3116 1747
z
" transform="scale(0.015625)"/>
      <path id="DejaVuSans-2d" d="M 313 2009
L 1997 2009
L 1997 1497
L 313 1497
L 313 2009
z
" transform="scale(0.015625)"/>
     </defs>
     <use xlink:href="#DejaVuSans-70"/>
     <use xlink:href="#DejaVuSans-3d" x="63.476562"/>
     <use xlink:href="#DejaVuSans-33" x="147.265625"/>
     <use xlink:href="#DejaVuSans-2e" x="210.888672"/>
     <use xlink:href="#DejaVuSans-33" x="242.675781"/>
     <use xlink:href="#DejaVuSans-38" x="306.298828"/>
     <use xlink:href="#DejaVuSans-65" x="369.921875"/>
     <use xlink:href="#DejaVuSans-2d" x="431.445312"/>
     <use xlink:href="#DejaVuSans-31" x="467.529297"/>
     <use xlink:href="#DejaVuSans-32" x="531.152344"/>
    </g>
   </g>
   <g id="text_15">
    <!-- A -->
    <g transform="translate(14.377483 29.524031) scale(0.13 -0.13)">
     <defs>
      <path id="DejaVuSans-Bold-41" d="M 3419 850
L 1538 850
L 1241 0
L 31 0
L 1759 4666
L 3194 4666
L 4922 0
L 3713 0
L 3419 850
z
M 1838 1716
L 3116 1716
L 2478 3572
L 1838 1716
z
" transform="scale(0.015625)"/>
     </defs>
     <use xlink:href="#DejaVuSans-Bold-41"/>
    </g>
   </g>
  </g>
  <g id="axes_2">
   <g id="patch_5">
    <path d="M 291.133053 197.04351
L 484.19351 197.04351
L 484.19351 32.786614
L 291.133053 32.786614
z
" style="fill: #ffffff"/>
   </g>
   <g id="matplotlib.axis_3">
    <g id="xtick_6">
     <g id="line2d_24">
      <path d="M 295.550504 197.04351
L 295.550504 32.786614
" clip-path="url(#pe63e7dce8e)" style="fill: none; stroke: #dddddd; stroke-width: 0.8; stroke-linecap: square"/>
     </g>
     <g id="line2d_25">
      <g>
       <use xlink:href="#m1eb6714736" x="295.550504" y="197.04351" style="stroke: #000000; stroke-width: 0.8"/>
      </g>
     </g>
     <g id="text_16">
      <!-- 0 -->
      <g transform="translate(292.369254 211.641948) scale(0.1 -0.1)">
       <use xlink:href="#DejaVuSans-30"/>
      </g>
     </g>
    </g>
    <g id="xtick_7">
     <g id="line2d_26">
      <path d="M 335.168903 197.04351
L 335.168903 32.786614
" clip-path="url(#pe63e7dce8e)" style="fill: none; stroke: #dddddd; stroke-width: 0.8; stroke-linecap: square"/>
     </g>
     <g id="line2d_27">
      <g>
       <use xlink:href="#m1eb6714736" x="335.168903" y="197.04351" style="stroke: #000000; stroke-width: 0.8"/>
      </g>
     </g>
     <g id="text_17">
      <!-- 100 -->
      <g transform="translate(325.625153 211.641948) scale(0.1 -0.1)">
       <use xlink:href="#DejaVuSans-31"/>
       <use xlink:href="#DejaVuSans-30" x="63.623047"/>
       <use xlink:href="#DejaVuSans-30" x="127.246094"/>
      </g>
     </g>
    </g>
    <g id="xtick_8">
     <g id="line2d_28">
      <path d="M 374.787302 197.04351
L 374.787302 32.786614
" clip-path="url(#pe63e7dce8e)" style="fill: none; stroke: #dddddd; stroke-width: 0.8; stroke-linecap: square"/>
     </g>
     <g id="line2d_29">
      <g>
       <use xlink:href="#m1eb6714736" x="374.787302" y="197.04351" style="stroke: #000000; stroke-width: 0.8"/>
      </g>
     </g>
     <g id="text_18">
      <!-- 200 -->
      <g transform="translate(365.243552 211.641948) scale(0.1 -0.1)">
       <use xlink:href="#DejaVuSans-32"/>
       <use xlink:href="#DejaVuSans-30" x="63.623047"/>
       <use xlink:href="#DejaVuSans-30" x="127.246094"/>
      </g>
     </g>
    </g>
    <g id="xtick_9">
     <g id="line2d_30">
      <path d="M 414.4057 197.04351
L 414.4057 32.786614
" clip-path="url(#pe63e7dce8e)" style="fill: none; stroke: #dddddd; stroke-width: 0.8; stroke-linecap: square"/>
     </g>
     <g id="line2d_31">
      <g>
       <use xlink:href="#m1eb6714736" x="414.4057" y="197.04351" style="stroke: #000000; stroke-width: 0.8"/>
      </g>
     </g>
     <g id="text_19">
      <!-- 300 -->
      <g transform="translate(404.86195 211.641948) scale(0.1 -0.1)">
       <use xlink:href="#DejaVuSans-33"/>
       <use xlink:href="#DejaVuSans-30" x="63.623047"/>
       <use xlink:href="#DejaVuSans-30" x="127.246094"/>
      </g>
     </g>
    </g>
    <g id="xtick_10">
     <g id="line2d_32">
      <path d="M 454.024099 197.04351
L 454.024099 32.786614
" clip-path="url(#pe63e7dce8e)" style="fill: none; stroke: #dddddd; stroke-width: 0.8; stroke-linecap: square"/>
     </g>
     <g id="line2d_33">
      <g>
       <use xlink:href="#m1eb6714736" x="454.024099" y="197.04351" style="stroke: #000000; stroke-width: 0.8"/>
      </g>
     </g>
     <g id="text_20">
      <!-- 400 -->
      <g transform="translate(444.480349 211.641948) scale(0.1 -0.1)">
       <use xlink:href="#DejaVuSans-34"/>
       <use xlink:href="#DejaVuSans-30" x="63.623047"/>
       <use xlink:href="#DejaVuSans-30" x="127.246094"/>
      </g>
     </g>
    </g>
    <g id="text_21">
     <!-- Residues -->
     <g transform="translate(365.319531 225.320073) scale(0.1 -0.1)">
      <use xlink:href="#DejaVuSans-52"/>
      <use xlink:href="#DejaVuSans-65" x="64.982422"/>
      <use xlink:href="#DejaVuSans-73" x="126.505859"/>
      <use xlink:href="#DejaVuSans-69" x="178.605469"/>
      <use xlink:href="#DejaVuSans-64" x="206.388672"/>
      <use xlink:href="#DejaVuSans-75" x="269.865234"/>
      <use xlink:href="#DejaVuSans-65" x="333.244141"/>
      <use xlink:href="#DejaVuSans-73" x="394.767578"/>
     </g>
    </g>
   </g>
   <g id="matplotlib.axis_4">
    <g id="ytick_7">
     <g id="line2d_34">
      <path d="M 291.133053 194.165901
L 484.19351 194.165901
" clip-path="url(#pe63e7dce8e)" style="fill: none; stroke: #dddddd; stroke-width: 0.8; stroke-linecap: square"/>
     </g>
     <g id="line2d_35">
      <g>
       <use xlink:href="#m2aa8e4b007" x="291.133053" y="194.165901" style="stroke: #000000; stroke-width: 0.8"/>
      </g>
     </g>
     <g id="text_22">
      <!-- 1.00 -->
      <g transform="translate(261.867428 197.96512) scale(0.1 -0.1)">
       <use xlink:href="#DejaVuSans-31"/>
       <use xlink:href="#DejaVuSans-2e" x="63.623047"/>
       <use xlink:href="#DejaVuSans-30" x="95.410156"/>
       <use xlink:href="#DejaVuSans-30" x="159.033203"/>
      </g>
     </g>
    </g>
    <g id="ytick_8">
     <g id="line2d_36">
      <path d="M 291.133053 170.985082
L 484.19351 170.985082
" clip-path="url(#pe63e7dce8e)" style="fill: none; stroke: #dddddd; stroke-width: 0.8; stroke-linecap: square"/>
     </g>
     <g id="line2d_37">
      <g>
       <use xlink:href="#m2aa8e4b007" x="291.133053" y="170.985082" style="stroke: #000000; stroke-width: 0.8"/>
      </g>
     </g>
     <g id="text_23">
      <!-- 1.25 -->
      <g transform="translate(261.867428 174.784301) scale(0.1 -0.1)">
       <use xlink:href="#DejaVuSans-31"/>
       <use xlink:href="#DejaVuSans-2e" x="63.623047"/>
       <use xlink:href="#DejaVuSans-32" x="95.410156"/>
       <use xlink:href="#DejaVuSans-35" x="159.033203"/>
      </g>
     </g>
    </g>
    <g id="ytick_9">
     <g id="line2d_38">
      <path d="M 291.133053 147.804263
L 484.19351 147.804263
" clip-path="url(#pe63e7dce8e)" style="fill: none; stroke: #dddddd; stroke-width: 0.8; stroke-linecap: square"/>
     </g>
     <g id="line2d_39">
      <g>
       <use xlink:href="#m2aa8e4b007" x="291.133053" y="147.804263" style="stroke: #000000; stroke-width: 0.8"/>
      </g>
     </g>
     <g id="text_24">
      <!-- 1.50 -->
      <g transform="translate(261.867428 151.603482) scale(0.1 -0.1)">
       <use xlink:href="#DejaVuSans-31"/>
       <use xlink:href="#DejaVuSans-2e" x="63.623047"/>
       <use xlink:href="#DejaVuSans-35" x="95.410156"/>
       <use xlink:href="#DejaVuSans-30" x="159.033203"/>
      </g>
     </g>
    </g>
    <g id="ytick_10">
     <g id="line2d_40">
      <path d="M 291.133053 124.623444
L 484.19351 124.623444
" clip-path="url(#pe63e7dce8e)" style="fill: none; stroke: #dddddd; stroke-width: 0.8; stroke-linecap: square"/>
     </g>
     <g id="line2d_41">
      <g>
       <use xlink:href="#m2aa8e4b007" x="291.133053" y="124.623444" style="stroke: #000000; stroke-width: 0.8"/>
      </g>
     </g>
     <g id="text_25">
      <!-- 1.75 -->
      <g transform="translate(261.867428 128.422663) scale(0.1 -0.1)">
       <defs>
        <path id="DejaVuSans-37" d="M 525 4666
L 3525 4666
L 3525 4397
L 1831 0
L 1172 0
L 2766 4134
L 525 4134
L 525 4666
z
" transform="scale(0.015625)"/>
       </defs>
       <use xlink:href="#DejaVuSans-31"/>
       <use xlink:href="#DejaVuSans-2e" x="63.623047"/>
       <use xlink:href="#DejaVuSans-37" x="95.410156"/>
       <use xlink:href="#DejaVuSans-35" x="159.033203"/>
      </g>
     </g>
    </g>
    <g id="ytick_11">
     <g id="line2d_42">
      <path d="M 291.133053 101.442625
L 484.19351 101.442625
" clip-path="url(#pe63e7dce8e)" style="fill: none; stroke: #dddddd; stroke-width: 0.8; stroke-linecap: square"/>
     </g>
     <g id="line2d_43">
      <g>
       <use xlink:href="#m2aa8e4b007" x="291.133053" y="101.442625" style="stroke: #000000; stroke-width: 0.8"/>
      </g>
     </g>
     <g id="text_26">
      <!-- 2.00 -->
      <g transform="translate(261.867428 105.241844) scale(0.1 -0.1)">
       <use xlink:href="#DejaVuSans-32"/>
       <use xlink:href="#DejaVuSans-2e" x="63.623047"/>
       <use xlink:href="#DejaVuSans-30" x="95.410156"/>
       <use xlink:href="#DejaVuSans-30" x="159.033203"/>
      </g>
     </g>
    </g>
    <g id="ytick_12">
     <g id="line2d_44">
      <path d="M 291.133053 78.261807
L 484.19351 78.261807
" clip-path="url(#pe63e7dce8e)" style="fill: none; stroke: #dddddd; stroke-width: 0.8; stroke-linecap: square"/>
     </g>
     <g id="line2d_45">
      <g>
       <use xlink:href="#m2aa8e4b007" x="291.133053" y="78.261807" style="stroke: #000000; stroke-width: 0.8"/>
      </g>
     </g>
     <g id="text_27">
      <!-- 2.25 -->
      <g transform="translate(261.867428 82.061025) scale(0.1 -0.1)">
       <use xlink:href="#DejaVuSans-32"/>
       <use xlink:href="#DejaVuSans-2e" x="63.623047"/>
       <use xlink:href="#DejaVuSans-32" x="95.410156"/>
       <use xlink:href="#DejaVuSans-35" x="159.033203"/>
      </g>
     </g>
    </g>
    <g id="ytick_13">
     <g id="line2d_46">
      <path d="M 291.133053 55.080988
L 484.19351 55.080988
" clip-path="url(#pe63e7dce8e)" style="fill: none; stroke: #dddddd; stroke-width: 0.8; stroke-linecap: square"/>
     </g>
     <g id="line2d_47">
      <g>
       <use xlink:href="#m2aa8e4b007" x="291.133053" y="55.080988" style="stroke: #000000; stroke-width: 0.8"/>
      </g>
     </g>
     <g id="text_28">
      <!-- 2.50 -->
      <g transform="translate(261.867428 58.880206) scale(0.1 -0.1)">
       <use xlink:href="#DejaVuSans-32"/>
       <use xlink:href="#DejaVuSans-2e" x="63.623047"/>
       <use xlink:href="#DejaVuSans-35" x="95.410156"/>
       <use xlink:href="#DejaVuSans-30" x="159.033203"/>
      </g>
     </g>
    </g>
    <g id="text_29">
     <!-- Predicted clashes / residue -->
     <g transform="translate(255.78774 181.926781) rotate(-90) scale(0.1 -0.1)">
      <defs>
       <path id="DejaVuSans-2f" d="M 1625 4666
L 2156 4666
L 531 -594
L 0 -594
L 1625 4666
z
" transform="scale(0.015625)"/>
      </defs>
      <use xlink:href="#DejaVuSans-50"/>
      <use xlink:href="#DejaVuSans-72" x="58.552734"/>
      <use xlink:href="#DejaVuSans-65" x="97.416016"/>
      <use xlink:href="#DejaVuSans-64" x="158.939453"/>
      <use xlink:href="#DejaVuSans-69" x="222.416016"/>
      <use xlink:href="#DejaVuSans-63" x="250.199219"/>
      <use xlink:href="#DejaVuSans-74" x="305.179688"/>
      <use xlink:href="#DejaVuSans-65" x="344.388672"/>
      <use xlink:href="#DejaVuSans-64" x="405.912109"/>
      <use xlink:href="#DejaVuSans-20" x="469.388672"/>
      <use xlink:href="#DejaVuSans-63" x="501.175781"/>
      <use xlink:href="#DejaVuSans-6c" x="556.15625"/>
      <use xlink:href="#DejaVuSans-61" x="583.939453"/>
      <use xlink:href="#DejaVuSans-73" x="645.21875"/>
      <use xlink:href="#DejaVuSans-68" x="697.318359"/>
      <use xlink:href="#DejaVuSans-65" x="760.697266"/>
      <use xlink:href="#DejaVuSans-73" x="822.220703"/>
      <use xlink:href="#DejaVuSans-20" x="874.320312"/>
      <use xlink:href="#DejaVuSans-2f" x="906.107422"/>
      <use xlink:href="#DejaVuSans-20" x="939.798828"/>
      <use xlink:href="#DejaVuSans-72" x="971.585938"/>
      <use xlink:href="#DejaVuSans-65" x="1010.449219"/>
      <use xlink:href="#DejaVuSans-73" x="1071.972656"/>
      <use xlink:href="#DejaVuSans-69" x="1124.072266"/>
      <use xlink:href="#DejaVuSans-64" x="1151.855469"/>
      <use xlink:href="#DejaVuSans-75" x="1215.332031"/>
      <use xlink:href="#DejaVuSans-65" x="1278.710938"/>
     </g>
    </g>
   </g>
   <g id="line2d_48">
    <path d="M 299.908528 147.456839
L 301.681351 146.37397
L 303.454174 145.291101
L 305.226998 144.208233
L 306.999821 143.125364
L 308.772644 142.042495
L 310.545468 140.959627
L 312.318291 139.876758
L 314.091114 138.793889
L 315.863938 137.71102
L 317.636761 136.628152
L 319.409584 135.545283
L 321.182407 134.462414
L 322.955231 133.379546
L 324.728054 132.296677
L 326.500877 131.213808
L 328.273701 130.130939
L 330.046524 129.048071
L 331.819347 127.965202
L 333.592171 126.882333
L 335.364994 125.799465
L 337.137817 124.716596
L 338.91064 123.633727
L 340.683464 122.550858
L 342.456287 121.46799
L 344.22911 120.385121
L 346.001934 119.302252
L 347.774757 118.219384
L 349.54758 117.136515
L 351.320404 116.053646
L 353.093227 114.970777
L 354.86605 113.887909
L 356.638873 112.80504
L 358.411697 111.722171
L 360.18452 110.639303
L 361.957343 109.556434
L 363.730167 108.473565
L 365.50299 107.390696
L 367.275813 106.307828
L 369.048637 105.224959
L 370.82146 104.14209
L 372.594283 103.059222
L 374.367106 101.976353
L 376.13993 100.893484
L 377.912753 99.810615
L 379.685576 98.727747
L 381.4584 97.644878
L 383.231223 96.562009
L 385.004046 95.479141
L 386.77687 94.396272
L 388.549693 93.313403
L 390.322516 92.230534
L 392.09534 91.147666
L 393.868163 90.064797
L 395.640986 88.981928
L 397.413809 87.89906
L 399.186633 86.816191
L 400.959456 85.733322
L 402.732279 84.650453
L 404.505103 83.567585
L 406.277926 82.484716
L 408.050749 81.401847
L 409.823573 80.318979
L 411.596396 79.23611
L 413.369219 78.153241
L 415.142042 77.070372
L 416.914866 75.987504
L 418.687689 74.904635
L 420.460512 73.821766
L 422.233336 72.738898
L 424.006159 71.656029
L 425.778982 70.57316
L 427.551806 69.490291
L 429.324629 68.407423
L 431.097452 67.324554
L 432.870275 66.241685
L 434.643099 65.158817
L 436.415922 64.075948
L 438.188745 62.993079
L 439.961569 61.91021
L 441.734392 60.827342
L 443.507215 59.744473
L 445.280039 58.661604
L 447.052862 57.578736
L 448.825685 56.495867
L 450.598508 55.412998
L 452.371332 54.330129
L 454.144155 53.247261
L 455.916978 52.164392
L 457.689802 51.081523
L 459.462625 49.998655
L 461.235448 48.915786
L 463.008272 47.832917
L 464.781095 46.750048
L 466.553918 45.66718
L 468.326741 44.584311
L 470.099565 43.501442
L 471.872388 42.418574
L 473.645211 41.335705
L 475.418035 40.252836
" clip-path="url(#pe63e7dce8e)" style="fill: none; stroke: #333333; stroke-width: 1.4; stroke-linecap: square"/>
   </g>
   <g id="patch_6">
    <path d="M 291.133053 197.04351
L 291.133053 32.786614
" style="fill: none; stroke: #000000; stroke-width: 0.8; stroke-linejoin: miter; stroke-linecap: square"/>
   </g>
   <g id="patch_7">
    <path d="M 291.133053 197.04351
L 484.19351 197.04351
" style="fill: none; stroke: #000000; stroke-width: 0.8; stroke-linejoin: miter; stroke-linecap: square"/>
   </g>
   <g id="PathCollection_2">
    <g clip-path="url(#pe63e7dce8e)">
     <use xlink:href="#m5747a745a2" x="347.84679" y="176.944191" style="fill: #3b6fb6; stroke: #ffffff; stroke-width: 0.7"/>
     <use xlink:href="#m5747a745a2" x="352.204814" y="170.088109" style="fill: #3b6fb6; stroke: #ffffff; stroke-width: 0.7"/>
     <use xlink:href="#m5747a745a2" x="338.338375" y="110.09966" style="fill: #3b6fb6; stroke: #ffffff; stroke-width: 0.7"/>
     <use xlink:href="#m5747a745a2" x="299.908528" y="102.587357" style="fill: #3b6fb6; stroke: #ffffff; stroke-width: 0.7"/>
     <use xlink:href="#m5747a745a2" x="351.016262" y="76.274879" style="fill: #3b6fb6; stroke: #ffffff; stroke-width: 0.7"/>
     <use xlink:href="#m5747a745a2" x="351.80863" y="51.816084" style="fill: #3b6fb6; stroke: #ffffff; stroke-width: 0.7"/>
     <use xlink:href="#m5747a745a2" x="324.868119" y="121.077405" style="fill: #3b6fb6; stroke: #ffffff; stroke-width: 0.7"/>
     <use xlink:href="#m5747a745a2" x="304.266552" y="160.869816" style="fill: #3b6fb6; stroke: #ffffff; stroke-width: 0.7"/>
     <use xlink:href="#m5747a745a2" x="321.302463" y="189.577287" style="fill: #3b6fb6; stroke: #ffffff; stroke-width: 0.7"/>
     <use xlink:href="#m5747a745a2" x="475.418035" y="61.429332" style="fill: #3b6fb6; stroke: #ffffff; stroke-width: 0.7"/>
     <use xlink:href="#m5747a745a2" x="355.77047" y="109.401373" style="fill: #3b6fb6; stroke: #ffffff; stroke-width: 0.7"/>
     <use xlink:href="#m5747a745a2" x="323.679567" y="136.33792" style="fill: #3b6fb6; stroke: #ffffff; stroke-width: 0.7"/>
     <use xlink:href="#m5747a745a2" x="304.266552" y="150.585961" style="fill: #3b6fb6; stroke: #ffffff; stroke-width: 0.7"/>
     <use xlink:href="#m5747a745a2" x="347.054422" y="144.772925" style="fill: #3b6fb6; stroke: #ffffff; stroke-width: 0.7"/>
     <use xlink:href="#m5747a745a2" x="304.266552" y="159.268232" style="fill: #3b6fb6; stroke: #ffffff; stroke-width: 0.7"/>
     <use xlink:href="#m5747a745a2" x="347.450606" y="114.433321" style="fill: #3b6fb6; stroke: #ffffff; stroke-width: 0.7"/>
     <use xlink:href="#m5747a745a2" x="311.397864" y="78.17681" style="fill: #3b6fb6; stroke: #ffffff; stroke-width: 0.7"/>
     <use xlink:href="#m5747a745a2" x="315.755887" y="136.659289" style="fill: #3b6fb6; stroke: #ffffff; stroke-width: 0.7"/>
     <use xlink:href="#m5747a745a2" x="352.204814" y="142.584526" style="fill: #3b6fb6; stroke: #ffffff; stroke-width: 0.7"/>
     <use xlink:href="#m5747a745a2" x="401.727813" y="59.800187" style="fill: #3b6fb6; stroke: #ffffff; stroke-width: 0.7"/>
     <use xlink:href="#m5747a745a2" x="401.727813" y="62.184619" style="fill: #3b6fb6; stroke: #ffffff; stroke-width: 0.7"/>
     <use xlink:href="#m5747a745a2" x="401.727813" y="66.869376" style="fill: #3b6fb6; stroke: #ffffff; stroke-width: 0.7"/>
     <use xlink:href="#m5747a745a2" x="322.887199" y="162.814683" style="fill: #3b6fb6; stroke: #ffffff; stroke-width: 0.7"/>
    </g>
   </g>
   <g id="text_30">
    <!-- rho=0.50 -->
    <g transform="translate(298.855471 48.720777) scale(0.08 -0.08)">
     <use xlink:href="#DejaVuSans-72"/>
     <use xlink:href="#DejaVuSans-68" x="39.363281"/>
     <use xlink:href="#DejaVuSans-6f" x="102.742188"/>
     <use xlink:href="#DejaVuSans-3d" x="163.923828"/>
     <use xlink:href="#DejaVuSans-30" x="247.712891"/>
     <use xlink:href="#DejaVuSans-2e" x="311.335938"/>
     <use xlink:href="#DejaVuSans-35" x="343.123047"/>
     <use xlink:href="#DejaVuSans-30" x="406.746094"/>
    </g>
    <!-- p=0.0151 -->
    <g transform="translate(298.855471 57.679027) scale(0.08 -0.08)">
     <use xlink:href="#DejaVuSans-70"/>
     <use xlink:href="#DejaVuSans-3d" x="63.476562"/>
     <use xlink:href="#DejaVuSans-30" x="147.265625"/>
     <use xlink:href="#DejaVuSans-2e" x="210.888672"/>
     <use xlink:href="#DejaVuSans-30" x="242.675781"/>
     <use xlink:href="#DejaVuSans-31" x="306.298828"/>
     <use xlink:href="#DejaVuSans-35" x="369.921875"/>
     <use xlink:href="#DejaVuSans-31" x="433.544922"/>
    </g>
   </g>
   <g id="text_31">
    <!-- B -->
    <g transform="translate(256.38217 29.524031) scale(0.13 -0.13)">
     <defs>
      <path id="DejaVuSans-Bold-42" d="M 2456 2859
Q 2741 2859 2887 2984
Q 3034 3109 3034 3353
Q 3034 3594 2887 3720
Q 2741 3847 2456 3847
L 1791 3847
L 1791 2859
L 2456 2859
z
M 2497 819
Q 2859 819 3042 972
Q 3225 1125 3225 1434
Q 3225 1738 3044 1889
Q 2863 2041 2497 2041
L 1791 2041
L 1791 819
L 2497 819
z
M 3616 2497
Q 4003 2384 4215 2081
Q 4428 1778 4428 1338
Q 4428 663 3972 331
Q 3516 0 2584 0
L 588 0
L 588 4666
L 2394 4666
Q 3366 4666 3802 4372
Q 4238 4078 4238 3431
Q 4238 3091 4078 2852
Q 3919 2613 3616 2497
z
" transform="scale(0.015625)"/>
     </defs>
     <use xlink:href="#DejaVuSans-Bold-42"/>
    </g>
   </g>
  </g>
  <g id="axes_3">
   <g id="patch_8">
    <path d="M 538.339303 197.04351
L 731.39976 197.04351
L 731.39976 32.786614
L 538.339303 32.786614
z
" style="fill: #ffffff"/>
   </g>
   <g id="matplotlib.axis_5">
    <g id="xtick_11">
     <g id="line2d_49">
      <path d="M 587.893087 197.04351
L 587.893087 32.786614
" clip-path="url(#pa4ed589b31)" style="fill: none; stroke: #dddddd; stroke-width: 0.8; stroke-linecap: square"/>
     </g>
     <g id="line2d_50">
      <g>
       <use xlink:href="#m1eb6714736" x="587.893087" y="197.04351" style="stroke: #000000; stroke-width: 0.8"/>
      </g>
     </g>
     <g id="text_32">
      <!-- 0.5 -->
      <g transform="translate(579.941525 211.641948) scale(0.1 -0.1)">
       <use xlink:href="#DejaVuSans-30"/>
       <use xlink:href="#DejaVuSans-2e" x="63.623047"/>
       <use xlink:href="#DejaVuSans-35" x="95.410156"/>
      </g>
     </g>
    </g>
    <g id="xtick_12">
     <g id="line2d_51">
      <path d="M 642.574523 197.04351
L 642.574523 32.786614
" clip-path="url(#pa4ed589b31)" style="fill: none; stroke: #dddddd; stroke-width: 0.8; stroke-linecap: square"/>
     </g>
     <g id="line2d_52">
      <g>
       <use xlink:href="#m1eb6714736" x="642.574523" y="197.04351" style="stroke: #000000; stroke-width: 0.8"/>
      </g>
     </g>
     <g id="text_33">
      <!-- 0.6 -->
      <g transform="translate(634.622961 211.641948) scale(0.1 -0.1)">
       <use xlink:href="#DejaVuSans-30"/>
       <use xlink:href="#DejaVuSans-2e" x="63.623047"/>
       <use xlink:href="#DejaVuSans-36" x="95.410156"/>
      </g>
     </g>
    </g>
    <g id="xtick_13">
     <g id="line2d_53">
      <path d="M 697.25596 197.04351
L 697.25596 32.786614
" clip-path="url(#pa4ed589b31)" style="fill: none; stroke: #dddddd; stroke-width: 0.8; stroke-linecap: square"/>
     </g>
     <g id="line2d_54">
      <g>
       <use xlink:href="#m1eb6714736" x="697.25596" y="197.04351" style="stroke: #000000; stroke-width: 0.8"/>
      </g>
     </g>
     <g id="text_34">
      <!-- 0.7 -->
      <g transform="translate(689.304397 211.641948) scale(0.1 -0.1)">
       <use xlink:href="#DejaVuSans-30"/>
       <use xlink:href="#DejaVuSans-2e" x="63.623047"/>
       <use xlink:href="#DejaVuSans-37" x="95.410156"/>
      </g>
     </g>
    </g>
    <g id="text_35">
     <!-- Compactness, 1/(Rg/N^0.6) -->
     <g transform="translate(564.885938 225.320073) scale(0.1 -0.1)">
      <defs>
       <path id="DejaVuSans-43" d="M 4122 4306
L 4122 3641
Q 3803 3938 3442 4084
Q 3081 4231 2675 4231
Q 1875 4231 1450 3742
Q 1025 3253 1025 2328
Q 1025 1406 1450 917
Q 1875 428 2675 428
Q 3081 428 3442 575
Q 3803 722 4122 1019
L 4122 359
Q 3791 134 3420 21
Q 3050 -91 2638 -91
Q 1578 -91 968 557
Q 359 1206 359 2328
Q 359 3453 968 4101
Q 1578 4750 2638 4750
Q 3056 4750 3426 4639
Q 3797 4528 4122 4306
z
" transform="scale(0.015625)"/>
       <path id="DejaVuSans-6d" d="M 3328 2828
Q 3544 3216 3844 3400
Q 4144 3584 4550 3584
Q 5097 3584 5394 3201
Q 5691 2819 5691 2113
L 5691 0
L 5113 0
L 5113 2094
Q 5113 2597 4934 2840
Q 4756 3084 4391 3084
Q 3944 3084 3684 2787
Q 3425 2491 3425 1978
L 3425 0
L 2847 0
L 2847 2094
Q 2847 2600 2669 2842
Q 2491 3084 2119 3084
Q 1678 3084 1418 2786
Q 1159 2488 1159 1978
L 1159 0
L 581 0
L 581 3500
L 1159 3500
L 1159 2956
Q 1356 3278 1631 3431
Q 1906 3584 2284 3584
Q 2666 3584 2933 3390
Q 3200 3197 3328 2828
z
" transform="scale(0.015625)"/>
       <path id="DejaVuSans-6e" d="M 3513 2113
L 3513 0
L 2938 0
L 2938 2094
Q 2938 2591 2744 2837
Q 2550 3084 2163 3084
Q 1697 3084 1428 2787
Q 1159 2491 1159 1978
L 1159 0
L 581 0
L 581 3500
L 1159 3500
L 1159 2956
Q 1366 3272 1645 3428
Q 1925 3584 2291 3584
Q 2894 3584 3203 3211
Q 3513 2838 3513 2113
z
" transform="scale(0.015625)"/>
       <path id="DejaVuSans-2c" d="M 750 794
L 1409 794
L 1409 256
L 897 -744
L 494 -744
L 750 256
L 750 794
z
" transform="scale(0.015625)"/>
       <path id="DejaVuSans-28" d="M 1984 4856
Q 1566 4138 1362 3434
Q 1159 2731 1159 2009
Q 1159 1288 1364 580
Q 1569 -128 1984 -844
L 1484 -844
Q 1016 -109 783 600
Q 550 1309 550 2009
Q 550 2706 781 3412
Q 1013 4119 1484 4856
L 1984 4856
z
" transform="scale(0.015625)"/>
       <path id="DejaVuSans-67" d="M 2906 1791
Q 2906 2416 2648 2759
Q 2391 3103 1925 3103
Q 1463 3103 1205 2759
Q 947 2416 947 1791
Q 947 1169 1205 825
Q 1463 481 1925 481
Q 2391 481 2648 825
Q 2906 1169 2906 1791
z
M 3481 434
Q 3481 -459 3084 -895
Q 2688 -1331 1869 -1331
Q 1566 -1331 1297 -1286
Q 1028 -1241 775 -1147
L 775 -588
Q 1028 -725 1275 -790
Q 1522 -856 1778 -856
Q 2344 -856 2625 -561
Q 2906 -266 2906 331
L 2906 616
Q 2728 306 2450 153
Q 2172 0 1784 0
Q 1141 0 747 490
Q 353 981 353 1791
Q 353 2603 747 3093
Q 1141 3584 1784 3584
Q 2172 3584 2450 3431
Q 2728 3278 2906 2969
L 2906 3500
L 3481 3500
L 3481 434
z
" transform="scale(0.015625)"/>
       <path id="DejaVuSans-4e" d="M 628 4666
L 1478 4666
L 3547 763
L 3547 4666
L 4159 4666
L 4159 0
L 3309 0
L 1241 3903
L 1241 0
L 628 0
L 628 4666
z
" transform="scale(0.015625)"/>
       <path id="DejaVuSans-5e" d="M 2988 4666
L 4684 2925
L 4056 2925
L 2681 4159
L 1306 2925
L 678 2925
L 2375 4666
L 2988 4666
z
" transform="scale(0.015625)"/>
       <path id="DejaVuSans-29" d="M 513 4856
L 1013 4856
Q 1481 4119 1714 3412
Q 1947 2706 1947 2009
Q 1947 1309 1714 600
Q 1481 -109 1013 -844
L 513 -844
Q 928 -128 1133 580
Q 1338 1288 1338 2009
Q 1338 2731 1133 3434
Q 928 4138 513 4856
z
" transform="scale(0.015625)"/>
      </defs>
      <use xlink:href="#DejaVuSans-43"/>
      <use xlink:href="#DejaVuSans-6f" x="69.824219"/>
      <use xlink:href="#DejaVuSans-6d" x="131.005859"/>
      <use xlink:href="#DejaVuSans-70" x="228.417969"/>
      <use xlink:href="#DejaVuSans-61" x="291.894531"/>
      <use xlink:href="#DejaVuSans-63" x="353.173828"/>
      <use xlink:href="#DejaVuSans-74" x="408.154297"/>
      <use xlink:href="#DejaVuSans-6e" x="447.363281"/>
      <use xlink:href="#DejaVuSans-65" x="510.742188"/>
      <use xlink:href="#DejaVuSans-73" x="572.265625"/>
      <use xlink:href="#DejaVuSans-73" x="624.365234"/>
      <use xlink:href="#DejaVuSans-2c" x="676.464844"/>
      <use xlink:href="#DejaVuSans-20" x="708.251953"/>
      <use xlink:href="#DejaVuSans-31" x="740.039062"/>
      <use xlink:href="#DejaVuSans-2f" x="803.662109"/>
      <use xlink:href="#DejaVuSans-28" x="837.353516"/>
      <use xlink:href="#DejaVuSans-52" x="876.367188"/>
      <use xlink:href="#DejaVuSans-67" x="945.849609"/>
      <use xlink:href="#DejaVuSans-2f" x="1009.326172"/>
      <use xlink:href="#DejaVuSans-4e" x="1043.017578"/>
      <use xlink:href="#DejaVuSans-5e" x="1117.822266"/>
      <use xlink:href="#DejaVuSans-30" x="1201.611328"/>
      <use xlink:href="#DejaVuSans-2e" x="1265.234375"/>
      <use xlink:href="#DejaVuSans-36" x="1297.021484"/>
      <use xlink:href="#DejaVuSans-29" x="1360.644531"/>
     </g>
    </g>
   </g>
   <g id="matplotlib.axis_6">
    <g id="ytick_14">
     <g id="line2d_55">
      <path d="M 538.339303 187.814398
L 731.39976 187.814398
" clip-path="url(#pa4ed589b31)" style="fill: none; stroke: #dddddd; stroke-width: 0.8; stroke-linecap: square"/>
     </g>
     <g id="line2d_56">
      <g>
       <use xlink:href="#m2aa8e4b007" x="538.339303" y="187.814398" style="stroke: #000000; stroke-width: 0.8"/>
      </g>
     </g>
     <g id="text_36">
      <!-- −100 -->
      <g transform="translate(503.872115 191.613617) scale(0.1 -0.1)">
       <defs>
        <path id="DejaVuSans-2212" d="M 678 2272
L 4684 2272
L 4684 1741
L 678 1741
L 678 2272
z
" transform="scale(0.015625)"/>
       </defs>
       <use xlink:href="#DejaVuSans-2212"/>
       <use xlink:href="#DejaVuSans-31" x="83.789062"/>
       <use xlink:href="#DejaVuSans-30" x="147.412109"/>
       <use xlink:href="#DejaVuSans-30" x="211.035156"/>
      </g>
     </g>
    </g>
    <g id="ytick_15">
     <g id="line2d_57">
      <path d="M 538.339303 149.210981
L 731.39976 149.210981
" clip-path="url(#pa4ed589b31)" style="fill: none; stroke: #dddddd; stroke-width: 0.8; stroke-linecap: square"/>
     </g>
     <g id="line2d_58">
      <g>
       <use xlink:href="#m2aa8e4b007" x="538.339303" y="149.210981" style="stroke: #000000; stroke-width: 0.8"/>
      </g>
     </g>
     <g id="text_37">
      <!-- 0 -->
      <g transform="translate(524.976803 153.0102) scale(0.1 -0.1)">
       <use xlink:href="#DejaVuSans-30"/>
      </g>
     </g>
    </g>
    <g id="ytick_16">
     <g id="line2d_59">
      <path d="M 538.339303 110.607564
L 731.39976 110.607564
" clip-path="url(#pa4ed589b31)" style="fill: none; stroke: #dddddd; stroke-width: 0.8; stroke-linecap: square"/>
     </g>
     <g id="line2d_60">
      <g>
       <use xlink:href="#m2aa8e4b007" x="538.339303" y="110.607564" style="stroke: #000000; stroke-width: 0.8"/>
      </g>
     </g>
     <g id="text_38">
      <!-- 100 -->
      <g transform="translate(512.251803 114.406783) scale(0.1 -0.1)">
       <use xlink:href="#DejaVuSans-31"/>
       <use xlink:href="#DejaVuSans-30" x="63.623047"/>
       <use xlink:href="#DejaVuSans-30" x="127.246094"/>
      </g>
     </g>
    </g>
    <g id="ytick_17">
     <g id="line2d_61">
      <path d="M 538.339303 72.004147
L 731.39976 72.004147
" clip-path="url(#pa4ed589b31)" style="fill: none; stroke: #dddddd; stroke-width: 0.8; stroke-linecap: square"/>
     </g>
     <g id="line2d_62">
      <g>
       <use xlink:href="#m2aa8e4b007" x="538.339303" y="72.004147" style="stroke: #000000; stroke-width: 0.8"/>
      </g>
     </g>
     <g id="text_39">
      <!-- 200 -->
      <g transform="translate(512.251803 75.803365) scale(0.1 -0.1)">
       <use xlink:href="#DejaVuSans-32"/>
       <use xlink:href="#DejaVuSans-30" x="63.623047"/>
       <use xlink:href="#DejaVuSans-30" x="127.246094"/>
      </g>
     </g>
    </g>
    <g id="ytick_18">
     <g id="line2d_63">
      <path d="M 538.339303 33.40073
L 731.39976 33.40073
" clip-path="url(#pa4ed589b31)" style="fill: none; stroke: #dddddd; stroke-width: 0.8; stroke-linecap: square"/>
     </g>
     <g id="line2d_64">
      <g>
       <use xlink:href="#m2aa8e4b007" x="538.339303" y="33.40073" style="stroke: #000000; stroke-width: 0.8"/>
      </g>
     </g>
     <g id="text_40">
      <!-- 300 -->
      <g transform="translate(512.251803 37.199948) scale(0.1 -0.1)">
       <use xlink:href="#DejaVuSans-33"/>
       <use xlink:href="#DejaVuSans-30" x="63.623047"/>
       <use xlink:href="#DejaVuSans-30" x="127.246094"/>
      </g>
     </g>
    </g>
    <g id="text_41">
     <!-- CODLAD - PED clashes -->
     <g transform="translate(497.792428 171.613499) rotate(-90) scale(0.1 -0.1)">
      <defs>
       <path id="DejaVuSans-4f" d="M 2522 4238
Q 1834 4238 1429 3725
Q 1025 3213 1025 2328
Q 1025 1447 1429 934
Q 1834 422 2522 422
Q 3209 422 3611 934
Q 4013 1447 4013 2328
Q 4013 3213 3611 3725
Q 3209 4238 2522 4238
z
M 2522 4750
Q 3503 4750 4090 4092
Q 4678 3434 4678 2328
Q 4678 1225 4090 567
Q 3503 -91 2522 -91
Q 1538 -91 948 565
Q 359 1222 359 2328
Q 359 3434 948 4092
Q 1538 4750 2522 4750
z
" transform="scale(0.015625)"/>
       <path id="DejaVuSans-44" d="M 1259 4147
L 1259 519
L 2022 519
Q 2988 519 3436 956
Q 3884 1394 3884 2338
Q 3884 3275 3436 3711
Q 2988 4147 2022 4147
L 1259 4147
z
M 628 4666
L 1925 4666
Q 3281 4666 3915 4102
Q 4550 3538 4550 2338
Q 4550 1131 3912 565
Q 3275 0 1925 0
L 628 0
L 628 4666
z
" transform="scale(0.015625)"/>
       <path id="DejaVuSans-4c" d="M 628 4666
L 1259 4666
L 1259 531
L 3531 531
L 3531 0
L 628 0
L 628 4666
z
" transform="scale(0.015625)"/>
       <path id="DejaVuSans-41" d="M 2188 4044
L 1331 1722
L 3047 1722
L 2188 4044
z
M 1831 4666
L 2547 4666
L 4325 0
L 3669 0
L 3244 1197
L 1141 1197
L 716 0
L 50 0
L 1831 4666
z
" transform="scale(0.015625)"/>
       <path id="DejaVuSans-45" d="M 628 4666
L 3578 4666
L 3578 4134
L 1259 4134
L 1259 2753
L 3481 2753
L 3481 2222
L 1259 2222
L 1259 531
L 3634 531
L 3634 0
L 628 0
L 628 4666
z
" transform="scale(0.015625)"/>
      </defs>
      <use xlink:href="#DejaVuSans-43"/>
      <use xlink:href="#DejaVuSans-4f" x="69.824219"/>
      <use xlink:href="#DejaVuSans-44" x="148.535156"/>
      <use xlink:href="#DejaVuSans-4c" x="225.537109"/>
      <use xlink:href="#DejaVuSans-41" x="283.5"/>
      <use xlink:href="#DejaVuSans-44" x="351.908203"/>
      <use xlink:href="#DejaVuSans-20" x="428.910156"/>
      <use xlink:href="#DejaVuSans-2d" x="460.697266"/>
      <use xlink:href="#DejaVuSans-20" x="496.78125"/>
      <use xlink:href="#DejaVuSans-50" x="528.568359"/>
      <use xlink:href="#DejaVuSans-45" x="588.871094"/>
      <use xlink:href="#DejaVuSans-44" x="652.054688"/>
      <use xlink:href="#DejaVuSans-20" x="729.056641"/>
      <use xlink:href="#DejaVuSans-63" x="760.84375"/>
      <use xlink:href="#DejaVuSans-6c" x="815.824219"/>
      <use xlink:href="#DejaVuSans-61" x="843.607422"/>
      <use xlink:href="#DejaVuSans-73" x="904.886719"/>
      <use xlink:href="#DejaVuSans-68" x="956.986328"/>
      <use xlink:href="#DejaVuSans-65" x="1020.365234"/>
      <use xlink:href="#DejaVuSans-73" x="1081.888672"/>
     </g>
    </g>
   </g>
   <g id="line2d_65">
    <path d="M 547.114778 161.46253
L 548.887601 160.928145
L 550.660424 160.39376
L 552.433248 159.859375
L 554.206071 159.324991
L 555.978894 158.790606
L 557.751718 158.256221
L 559.524541 157.721836
L 561.297364 157.187451
L 563.070188 156.653066
L 564.843011 156.118681
L 566.615834 155.584297
L 568.388657 155.049912
L 570.161481 154.515527
L 571.934304 153.981142
L 573.707127 153.446757
L 575.479951 152.912372
L 577.252774 152.377988
L 579.025597 151.843603
L 580.798421 151.309218
L 582.571244 150.774833
L 584.344067 150.240448
L 586.11689 149.706063
L 587.889714 149.171679
L 589.662537 148.637294
L 591.43536 148.102909
L 593.208184 147.568524
L 594.981007 147.034139
L 596.75383 146.499754
L 598.526654 145.96537
L 600.299477 145.430985
L 602.0723 144.8966
L 603.845123 144.362215
L 605.617947 143.82783
L 607.39077 143.293445
L 609.163593 142.759061
L 610.936417 142.224676
L 612.70924 141.690291
L 614.482063 141.155906
L 616.254887 140.621521
L 618.02771 140.087136
L 619.800533 139.552752
L 621.573356 139.018367
L 623.34618 138.483982
L 625.119003 137.949597
L 626.891826 137.415212
L 628.66465 136.880827
L 630.437473 136.346443
L 632.210296 135.812058
L 633.98312 135.277673
L 635.755943 134.743288
L 637.528766 134.208903
L 639.30159 133.674518
L 641.074413 133.140134
L 642.847236 132.605749
L 644.620059 132.071364
L 646.392883 131.536979
L 648.165706 131.002594
L 649.938529 130.468209
L 651.711353 129.933825
L 653.484176 129.39944
L 655.256999 128.865055
L 657.029823 128.33067
L 658.802646 127.796285
L 660.575469 127.2619
L 662.348292 126.727516
L 664.121116 126.193131
L 665.893939 125.658746
L 667.666762 125.124361
L 669.439586 124.589976
L 671.212409 124.055591
L 672.985232 123.521207
L 674.758056 122.986822
L 676.530879 122.452437
L 678.303702 121.918052
L 680.076525 121.383667
L 681.849349 120.849282
L 683.622172 120.314898
L 685.394995 119.780513
L 687.167819 119.246128
L 688.940642 118.711743
L 690.713465 118.177358
L 692.486289 117.642973
L 694.259112 117.108588
L 696.031935 116.574204
L 697.804758 116.039819
L 699.577582 115.505434
L 701.350405 114.971049
L 703.123228 114.436664
L 704.896052 113.902279
L 706.668875 113.367895
L 708.441698 112.83351
L 710.214522 112.299125
L 711.987345 111.76474
L 713.760168 111.230355
L 715.532991 110.69597
L 717.305815 110.161586
L 719.078638 109.627201
L 720.851461 109.092816
L 722.624285 108.558431
" clip-path="url(#pa4ed589b31)" style="fill: none; stroke: #333333; stroke-width: 1.4; stroke-linecap: square"/>
   </g>
   <g id="patch_9">
    <path d="M 538.339303 197.04351
L 538.339303 32.786614
" style="fill: none; stroke: #000000; stroke-width: 0.8; stroke-linejoin: miter; stroke-linecap: square"/>
   </g>
   <g id="patch_10">
    <path d="M 538.339303 197.04351
L 731.39976 197.04351
" style="fill: none; stroke: #000000; stroke-width: 0.8; stroke-linejoin: miter; stroke-linecap: square"/>
   </g>
   <g id="PathCollection_3">
    <g clip-path="url(#pa4ed589b31)">
     <use xlink:href="#m5747a745a2" x="632.197024" y="153.734015" style="fill: #3b6fb6; stroke: #ffffff; stroke-width: 0.7"/>
     <use xlink:href="#m5747a745a2" x="696.728846" y="148.646084" style="fill: #3b6fb6; stroke: #ffffff; stroke-width: 0.7"/>
     <use xlink:href="#m5747a745a2" x="610.948629" y="168.600191" style="fill: #3b6fb6; stroke: #ffffff; stroke-width: 0.7"/>
     <use xlink:href="#m5747a745a2" x="592.015479" y="146.05122" style="fill: #3b6fb6; stroke: #ffffff; stroke-width: 0.7"/>
     <use xlink:href="#m5747a745a2" x="580.284371" y="107.471036" style="fill: #3b6fb6; stroke: #ffffff; stroke-width: 0.7"/>
     <use xlink:href="#m5747a745a2" x="617.791275" y="100.24898" style="fill: #3b6fb6; stroke: #ffffff; stroke-width: 0.7"/>
     <use xlink:href="#m5747a745a2" x="595.768326" y="164.397565" style="fill: #3b6fb6; stroke: #ffffff; stroke-width: 0.7"/>
     <use xlink:href="#m5747a745a2" x="581.831328" y="146.566647" style="fill: #3b6fb6; stroke: #ffffff; stroke-width: 0.7"/>
     <use xlink:href="#m5747a745a2" x="615.653265" y="154.295051" style="fill: #3b6fb6; stroke: #ffffff; stroke-width: 0.7"/>
     <use xlink:href="#m5747a745a2" x="655.208221" y="40.252836" style="fill: #3b6fb6; stroke: #ffffff; stroke-width: 0.7"/>
     <use xlink:href="#m5747a745a2" x="620.832564" y="173.661099" style="fill: #3b6fb6; stroke: #ffffff; stroke-width: 0.7"/>
     <use xlink:href="#m5747a745a2" x="547.114778" y="146.091825" style="fill: #3b6fb6; stroke: #ffffff; stroke-width: 0.7"/>
     <use xlink:href="#m5747a745a2" x="596.285294" y="146.670876" style="fill: #3b6fb6; stroke: #ffffff; stroke-width: 0.7"/>
     <use xlink:href="#m5747a745a2" x="568.796921" y="138.556438" style="fill: #3b6fb6; stroke: #ffffff; stroke-width: 0.7"/>
     <use xlink:href="#m5747a745a2" x="576.554991" y="147.05691" style="fill: #3b6fb6; stroke: #ffffff; stroke-width: 0.7"/>
     <use xlink:href="#m5747a745a2" x="660.214033" y="94.848362" style="fill: #3b6fb6; stroke: #ffffff; stroke-width: 0.7"/>
     <use xlink:href="#m5747a745a2" x="626.012267" y="131.35304" style="fill: #3b6fb6; stroke: #ffffff; stroke-width: 0.7"/>
     <use xlink:href="#m5747a745a2" x="606.55625" y="126.245808" style="fill: #3b6fb6; stroke: #ffffff; stroke-width: 0.7"/>
     <use xlink:href="#m5747a745a2" x="722.624285" y="97.11953" style="fill: #3b6fb6; stroke: #ffffff; stroke-width: 0.7"/>
     <use xlink:href="#m5747a745a2" x="628.534365" y="187.864582" style="fill: #3b6fb6; stroke: #ffffff; stroke-width: 0.7"/>
     <use xlink:href="#m5747a745a2" x="611.952905" y="187.658177" style="fill: #3b6fb6; stroke: #ffffff; stroke-width: 0.7"/>
     <use xlink:href="#m5747a745a2" x="598.185147" y="189.577287" style="fill: #3b6fb6; stroke: #ffffff; stroke-width: 0.7"/>
     <use xlink:href="#m5747a745a2" x="645.081812" y="133.315381" style="fill: #3b6fb6; stroke: #ffffff; stroke-width: 0.7"/>
    </g>
   </g>
   <g id="text_42">
    <!-- rho=0.18 -->
    <g transform="translate(546.061721 48.720777) scale(0.08 -0.08)">
     <use xlink:href="#DejaVuSans-72"/>
     <use xlink:href="#DejaVuSans-68" x="39.363281"/>
     <use xlink:href="#DejaVuSans-6f" x="102.742188"/>
     <use xlink:href="#DejaVuSans-3d" x="163.923828"/>
     <use xlink:href="#DejaVuSans-30" x="247.712891"/>
     <use xlink:href="#DejaVuSans-2e" x="311.335938"/>
     <use xlink:href="#DejaVuSans-31" x="343.123047"/>
     <use xlink:href="#DejaVuSans-38" x="406.746094"/>
    </g>
    <!-- p=0.419 -->
    <g transform="translate(546.061721 57.679027) scale(0.08 -0.08)">
     <use xlink:href="#DejaVuSans-70"/>
     <use xlink:href="#DejaVuSans-3d" x="63.476562"/>
     <use xlink:href="#DejaVuSans-30" x="147.265625"/>
     <use xlink:href="#DejaVuSans-2e" x="210.888672"/>
     <use xlink:href="#DejaVuSans-34" x="242.675781"/>
     <use xlink:href="#DejaVuSans-31" x="306.298828"/>
     <use xlink:href="#DejaVuSans-39" x="369.921875"/>
    </g>
   </g>
   <g id="text_43">
    <!-- C -->
    <g transform="translate(503.58842 29.524031) scale(0.13 -0.13)">
     <defs>
      <path id="DejaVuSans-Bold-43" d="M 4288 256
Q 3956 84 3597 -3
Q 3238 -91 2847 -91
Q 1681 -91 1000 561
Q 319 1213 319 2328
Q 319 3447 1000 4098
Q 1681 4750 2847 4750
Q 3238 4750 3597 4662
Q 3956 4575 4288 4403
L 4288 3438
Q 3953 3666 3628 3772
Q 3303 3878 2944 3878
Q 2300 3878 1931 3465
Q 1563 3053 1563 2328
Q 1563 1606 1931 1193
Q 2300 781 2944 781
Q 3303 781 3628 887
Q 3953 994 4288 1222
L 4288 256
z
" transform="scale(0.015625)"/>
     </defs>
     <use xlink:href="#DejaVuSans-Bold-43"/>
    </g>
   </g>
  </g>
  <g id="text_44">
   <!-- Dependence of Fig. 2 clash counts on chain length and compactness -->
   <g transform="translate(177.968203 11.358521) scale(0.11 -0.11)">
    <defs>
     <path id="DejaVuSans-66" d="M 2375 4863
L 2375 4384
L 1825 4384
Q 1516 4384 1395 4259
Q 1275 4134 1275 3809
L 1275 3500
L 2222 3500
L 2222 3053
L 1275 3053
L 1275 0
L 697 0
L 697 3053
L 147 3053
L 147 3500
L 697 3500
L 697 3744
Q 697 4328 969 4595
Q 1241 4863 1831 4863
L 2375 4863
z
" transform="scale(0.015625)"/>
     <path id="DejaVuSans-46" d="M 628 4666
L 3309 4666
L 3309 4134
L 1259 4134
L 1259 2759
L 3109 2759
L 3109 2228
L 1259 2228
L 1259 0
L 628 0
L 628 4666
z
" transform="scale(0.015625)"/>
    </defs>
    <use xlink:href="#DejaVuSans-44"/>
    <use xlink:href="#DejaVuSans-65" x="77.001953"/>
    <use xlink:href="#DejaVuSans-70" x="138.525391"/>
    <use xlink:href="#DejaVuSans-65" x="202.001953"/>
    <use xlink:href="#DejaVuSans-6e" x="263.525391"/>
    <use xlink:href="#DejaVuSans-64" x="326.904297"/>
    <use xlink:href="#DejaVuSans-65" x="390.380859"/>
    <use xlink:href="#DejaVuSans-6e" x="451.904297"/>
    <use xlink:href="#DejaVuSans-63" x="515.283203"/>
    <use xlink:href="#DejaVuSans-65" x="570.263672"/>
    <use xlink:href="#DejaVuSans-20" x="631.787109"/>
    <use xlink:href="#DejaVuSans-6f" x="663.574219"/>
    <use xlink:href="#DejaVuSans-66" x="724.755859"/>
    <use xlink:href="#DejaVuSans-20" x="759.960938"/>
    <use xlink:href="#DejaVuSans-46" x="791.748047"/>
    <use xlink:href="#DejaVuSans-69" x="842.017578"/>
    <use xlink:href="#DejaVuSans-67" x="869.800781"/>
    <use xlink:href="#DejaVuSans-2e" x="933.277344"/>
    <use xlink:href="#DejaVuSans-20" x="965.064453"/>
    <use xlink:href="#DejaVuSans-32" x="996.851562"/>
    <use xlink:href="#DejaVuSans-20" x="1060.474609"/>
    <use xlink:href="#DejaVuSans-63" x="1092.261719"/>
    <use xlink:href="#DejaVuSans-6c" x="1147.242188"/>
    <use xlink:href="#DejaVuSans-61" x="1175.025391"/>
    <use xlink:href="#DejaVuSans-73" x="1236.304688"/>
    <use xlink:href="#DejaVuSans-68" x="1288.404297"/>
    <use xlink:href="#DejaVuSans-20" x="1351.783203"/>
    <use xlink:href="#DejaVuSans-63" x="1383.570312"/>
    <use xlink:href="#DejaVuSans-6f" x="1438.550781"/>
    <use xlink:href="#DejaVuSans-75" x="1499.732422"/>
    <use xlink:href="#DejaVuSans-6e" x="1563.111328"/>
    <use xlink:href="#DejaVuSans-74" x="1626.490234"/>
    <use xlink:href="#DejaVuSans-73" x="1665.699219"/>
    <use xlink:href="#DejaVuSans-20" x="1717.798828"/>
    <use xlink:href="#DejaVuSans-6f" x="1749.585938"/>
    <use xlink:href="#DejaVuSans-6e" x="1810.767578"/>
    <use xlink:href="#DejaVuSans-20" x="1874.146484"/>
    <use xlink:href="#DejaVuSans-63" x="1905.933594"/>
    <use xlink:href="#DejaVuSans-68" x="1960.914062"/>
    <use xlink:href="#DejaVuSans-61" x="2024.292969"/>
    <use xlink:href="#DejaVuSans-69" x="2085.572266"/>
    <use xlink:href="#DejaVuSans-6e" x="2113.355469"/>
    <use xlink:href="#DejaVuSans-20" x="2176.734375"/>
    <use xlink:href="#DejaVuSans-6c" x="2208.521484"/>
    <use xlink:href="#DejaVuSans-65" x="2236.304688"/>
    <use xlink:href="#DejaVuSans-6e" x="2297.828125"/>
    <use xlink:href="#DejaVuSans-67" x="2361.207031"/>
    <use xlink:href="#DejaVuSans-74" x="2424.683594"/>
    <use xlink:href="#DejaVuSans-68" x="2463.892578"/>
    <use xlink:href="#DejaVuSans-20" x="2527.271484"/>
    <use xlink:href="#DejaVuSans-61" x="2559.058594"/>
    <use xlink:href="#DejaVuSans-6e" x="2620.337891"/>
    <use xlink:href="#DejaVuSans-64" x="2683.716797"/>
    <use xlink:href="#DejaVuSans-20" x="2747.193359"/>
    <use xlink:href="#DejaVuSans-63" x="2778.980469"/>
    <use xlink:href="#DejaVuSans-6f" x="2833.960938"/>
    <use xlink:href="#DejaVuSans-6d" x="2895.142578"/>
    <use xlink:href="#DejaVuSans-70" x="2992.554688"/>
    <use xlink:href="#DejaVuSans-61" x="3056.03125"/>
    <use xlink:href="#DejaVuSans-63" x="3117.310547"/>
    <use xlink:href="#DejaVuSans-74" x="3172.291016"/>
    <use xlink:href="#DejaVuSans-6e" x="3211.5"/>
    <use xlink:href="#DejaVuSans-65" x="3274.878906"/>
    <use xlink:href="#DejaVuSans-73" x="3336.402344"/>
    <use xlink:href="#DejaVuSans-73" x="3388.501953"/>
   </g>
  </g>
 </g>
 <defs>
  <clipPath id="p699003d8bc">
   <rect x="49.128365" y="32.786614" width="193.060457" height="164.256896"/>
  </clipPath>
  <clipPath id="pe63e7dce8e">
   <rect x="291.133053" y="32.786614" width="193.060457" height="164.256896"/>
  </clipPath>
  <clipPath id="pa4ed589b31">
   <rect x="538.339303" y="32.786614" width="193.060457" height="164.256896"/>
  </clipPath>
 </defs>
</svg>
